<svg width="60" height="60" viewBox="0 0 60 60" fill="none" xmlns="http://www.w3.org/2000/svg">
<path d="M11.7236 58.2661C13.2738 59.432 15.0736 59.9946 16.8603 59.9946C19.5492 59.9946 22.2029 58.72 23.9107 56.3245C23.9156 56.3194 23.9202 56.3141 23.9246 56.3085C23.9287 56.3029 23.9328 56.2973 23.9367 56.2917L23.9426 56.2829C23.9467 56.277 23.9506 56.2712 23.9545 56.2656L29.9977 47.66L36.041 56.2656C36.0469 56.2749 36.0531 56.2821 36.059 56.2901C36.0619 56.2938 36.0644 56.2976 36.0673 56.3018C38.9138 60.3168 44.3833 61.2013 48.2764 58.2706C52.1738 55.3402 53.0452 49.6741 50.2337 45.6277L50.2275 45.6176C50.2224 45.609 50.2183 45.6026 50.2118 45.596L44.1817 36.9856L53.9517 33.6922C58.541 32.1453 61.0634 27.0147 59.57 22.2603C58.077 17.5061 53.1284 14.8931 48.5347 16.4356L38.765 19.7155L38.7606 9.06837C38.7559 4.06917 34.8279 0 30.0021 0C25.1763 0 21.2483 4.06917 21.2439 9.0729L21.2351 19.7109L11.4652 16.431C11.4614 16.431 11.4567 16.4301 11.4519 16.4287C11.4458 16.427 11.4395 16.4245 11.4345 16.4219C6.84958 14.8977 1.91866 17.5107 0.429751 22.256C-1.05918 27.0011 1.44574 32.1136 6.01316 33.6741C6.01738 33.6754 6.02117 33.677 6.0248 33.6786L6.04089 33.685L6.04823 33.6877L15.8137 36.981L9.78359 45.5914C9.7814 45.596 9.77815 45.6005 9.77488 45.605C9.77156 45.6096 9.76832 45.6141 9.76613 45.6186C6.9503 49.665 7.82614 55.3357 11.7236 58.2661Z" fill="#C1DBFF"/>
</svg>
