<svg width="560" height="560" viewBox="0 0 560 560" fill="none" xmlns="http://www.w3.org/2000/svg">
<path d="M140 0C62.6802 0 0 62.6802 0 140C0 217.321 62.6802 280 140 280C62.6802 280 0 342.679 0 420C0 497.321 62.6802 560 140 560C217.321 560 280 497.321 280 420C280 497.321 342.679 560 420 560C497.321 560 560 497.321 560 420C560 342.679 497.321 280 420 280C497.321 280 560 217.321 560 140C560 62.6802 497.321 0 420 0C342.679 0 280 62.6802 280 140C280 62.6802 217.321 0 140 0Z" fill="#E9F2FF"/>
</svg>
