<svg width="2048" height="500" viewBox="0 0 2048 500" fill="none" xmlns="http://www.w3.org/2000/svg">
<path fill-rule="evenodd" clip-rule="evenodd" d="M2039.55 5.71835C2049.65 14.3057 2050.87 29.4523 2042.28 39.5492C1972.27 121.873 1847.05 202.535 1796.98 231.786C1731.24 270.187 1662 294.982 1589.9 310.06C1404.43 348.838 1214.07 337.681 1029.27 326.85C987.267 324.389 945.551 321.944 904.245 320.106C670.845 309.72 435.064 330.089 213.459 409.717C157.556 429.805 100.874 451.89 52.02 483.479C51.8055 483.669 51.4718 483.969 50.9988 484.406C50.184 485.16 49.416 485.885 48.5525 486.701C47.9119 487.306 47.2187 487.961 46.4148 488.714C44.8919 490.14 42.7913 492.089 40.9164 493.607L40.8668 493.647C40.2182 494.173 38.0929 495.895 35.3881 497.273C34.5511 497.7 33.1318 498.369 31.2958 498.93C29.7041 499.416 26.1654 500.342 21.6393 499.87C16.4208 499.326 9.65511 496.799 4.81258 490.323C0.519127 484.582 0 478.693 0 475.825C0 466.79 4.99201 458.922 12.3682 454.827C12.722 454.502 13.1326 454.121 13.6041 453.679C14.0744 453.239 14.6491 452.696 15.2602 452.12C16.317 451.122 17.4827 450.022 18.4069 449.168C18.4576 449.121 18.5143 449.068 18.5767 449.01C19.6355 448.028 22.3297 445.528 24.9321 443.836C79.0956 408.61 140.818 384.814 197.228 364.545C426.525 282.152 668.996 261.59 906.379 272.153C949.205 274.059 991.952 276.55 1034.59 279.035C1219.01 289.783 1401.48 300.417 1580.07 263.076C1647.8 248.915 1712.06 225.803 1772.77 190.339C1822.32 161.391 1941.36 84.1283 2005.72 8.45172C2014.31 -1.64522 2029.45 -2.86899 2039.55 5.71835ZM10.7146 456.299C10.5275 456.451 10.5686 456.404 10.7969 456.231C10.7664 456.257 10.739 456.279 10.7146 456.299Z" fill="#E4EFFF"/>
</svg>
