<svg width="64" height="64" viewBox="0 0 64 64" fill="none" xmlns="http://www.w3.org/2000/svg">
<path d="M28.2148 3.07945C29.4478 -0.529646 34.5522 -0.529644 35.7852 3.07945L40.518 16.9325C41.071 18.5514 42.5924 19.6393 44.3032 19.6393H59.1747C63.0981 19.6393 64.6764 24.6998 61.4486 26.9301L49.7683 35.0011C48.2955 36.0187 47.6782 37.891 48.257 39.585L52.799 52.8797C54.046 56.5299 49.9133 59.6564 46.7399 57.4636L34.2739 48.8499C32.9054 47.9043 31.0946 47.9043 29.7261 48.8499L17.2601 57.4637C14.0866 59.6565 9.95396 56.5299 11.201 52.8797L15.743 39.585C16.3218 37.891 15.7045 36.0187 14.2317 35.001L2.55135 26.9301C-0.676376 24.6998 0.901927 19.6393 4.82525 19.6393H19.6968C21.4076 19.6393 22.929 18.5514 23.482 16.9325L28.2148 3.07945Z" fill="white"/>
<path d="M35.7852 60.9205C34.5522 64.5296 29.4478 64.5296 28.2148 60.9205L23.482 47.0675C22.929 45.4486 21.4076 44.3607 19.6968 44.3607H4.82526C0.901937 44.3607 -0.676365 39.3002 2.55136 37.0699L14.2317 28.9989C15.7045 27.9813 16.3218 26.109 15.743 24.415L11.201 11.1203C9.95396 7.47011 14.0867 4.34354 17.2601 6.53634L29.7261 15.1501C31.0946 16.0957 32.9054 16.0957 34.2739 15.1501L46.7399 6.53634C49.9134 4.34353 54.046 7.47012 52.799 11.1203L48.257 24.415C47.6782 26.109 48.2955 27.9813 49.7683 28.9989L61.4487 37.0699C64.6764 39.3002 63.0981 44.3607 59.1748 44.3607H44.3032C42.5924 44.3607 41.071 45.4486 40.518 47.0675L35.7852 60.9205Z" fill="white"/>
</svg>
