<svg width="32" height="32" viewBox="0 0 32 32" fill="none" xmlns="http://www.w3.org/2000/svg">
<path opacity="0.2" d="M5.27951 5.37325C5.13048 5.32978 4.97337 5.32161 4.82063 5.34938C4.66789 5.37715 4.52371 5.4401 4.39951 5.53325C4.27532 5.6264 4.17451 5.74718 4.10508 5.88604C4.03566 6.02489 3.99951 6.17801 3.99951 6.33325V23.6666C3.99951 23.8218 4.03566 23.9749 4.10508 24.1138C4.17451 24.2527 4.27532 24.3734 4.39951 24.4666C4.52371 24.5597 4.66789 24.6227 4.82063 24.6505C4.97337 24.6782 5.13048 24.6701 5.27951 24.6266L17.0002 21.208V8.79179L5.27951 5.37325Z" fill="white"/>
<path d="M3.99951 6.33325V23.6666C3.99951 23.8218 4.03566 23.9749 4.10508 24.1138C4.17451 24.2527 4.27532 24.3734 4.39951 24.4666C4.52371 24.5597 4.66789 24.6227 4.82063 24.6505C4.97337 24.6782 5.13048 24.6701 5.27951 24.6266L27.2795 18.2099C27.4872 18.1493 27.6697 18.023 27.7995 17.8499C27.9293 17.6768 27.9995 17.4663 27.9995 17.2499V12.7499C27.9995 12.5335 27.9293 12.323 27.7995 12.1499C27.6697 11.9768 27.4872 11.8505 27.2795 11.7899L5.27951 5.37325C5.13048 5.32978 4.97337 5.32161 4.82063 5.34938C4.66789 5.37715 4.52371 5.4401 4.39951 5.53325C4.27532 5.6264 4.17451 5.74718 4.10508 5.88604C4.03566 6.02489 3.99951 6.17801 3.99951 6.33325V6.33325Z" stroke="white" stroke-width="2" stroke-linecap="round" stroke-linejoin="round"/>
<path d="M23 19.4582V24.0001C23 24.2653 22.8946 24.5197 22.7071 24.7072C22.5196 24.8948 22.2652 25.0001 22 25.0001H18C17.7348 25.0001 17.4804 24.8948 17.2929 24.7072C17.1054 24.5197 17 24.2653 17 24.0001V8.79199" stroke="white" stroke-width="2" stroke-linecap="round" stroke-linejoin="round"/>
</svg>
