<svg width="32" height="32" viewBox="0 0 32 32" fill="none" xmlns="http://www.w3.org/2000/svg">
<path opacity="0.2" d="M15.001 7.00049L7.54139 9.79785C7.37707 9.85946 7.23186 9.96322 7.12035 10.0987C7.00884 10.2342 6.93495 10.3967 6.9061 10.5698L4.00098 28.0005L21.4317 25.0953C21.6048 25.0665 21.7672 24.9926 21.9027 24.8811C22.0382 24.7696 22.142 24.6244 22.2036 24.4601L25.001 17.0005L15.001 7.00049ZM14.5002 20.0001C14.0058 20.0001 13.5224 19.8534 13.1113 19.5787C12.7002 19.304 12.3798 18.9136 12.1905 18.4568C12.0013 18 11.9518 17.4973 12.0483 17.0123C12.1447 16.5274 12.3828 16.0819 12.7325 15.7323C13.0821 15.3827 13.5276 15.1446 14.0125 15.0481C14.4975 14.9516 15.0001 15.0011 15.457 15.1904C15.9138 15.3796 16.3042 15.7 16.5789 16.1111C16.8536 16.5223 17.0002 17.0056 17.0002 17.5001C17.0002 17.8284 16.9356 18.1535 16.8099 18.4568C16.6843 18.7601 16.5002 19.0357 16.268 19.2678C16.0359 19.5 15.7603 19.6841 15.457 19.8098C15.1536 19.9354 14.8286 20.0001 14.5002 20.0001Z" fill="white"/>
<path d="M14.5 20C15.8807 20 17 18.8807 17 17.5C17 16.1193 15.8807 15 14.5 15C13.1193 15 12 16.1193 12 17.5C12 18.8807 13.1193 20 14.5 20Z" stroke="white" stroke-width="2" stroke-linecap="round" stroke-linejoin="round"/>
<path d="M4.00049 28.0005L12.732 19.2678" stroke="white" stroke-width="2" stroke-linecap="round" stroke-linejoin="round"/>
<path d="M4.00049 28.0005L21.4312 25.0954C21.6043 25.0665 21.7668 24.9926 21.9023 24.8811C22.0377 24.7696 22.1415 24.6244 22.2031 24.4601L25.0005 17.0005L15.0005 7.00049L7.54088 9.79785C7.37657 9.85946 7.23137 9.96323 7.11986 10.0987C7.00835 10.2342 6.93446 10.3967 6.90561 10.5698L4.00049 28.0005Z" stroke="white" stroke-width="2" stroke-linecap="round" stroke-linejoin="round"/>
<path d="M25.0005 17.0003L28.2934 13.7074C28.3862 13.6146 28.4599 13.5043 28.5102 13.383C28.5604 13.2617 28.5863 13.1317 28.5863 13.0003C28.5863 12.869 28.5604 12.739 28.5102 12.6177C28.4599 12.4963 28.3862 12.3861 28.2934 12.2932L19.7076 3.70744C19.5201 3.51991 19.2657 3.41455 19.0005 3.41455C18.7353 3.41455 18.4809 3.51991 18.2934 3.70744L15.0005 7.00034" stroke="white" stroke-width="2" stroke-linecap="round" stroke-linejoin="round"/>
</svg>
