<svg width="44" height="44" viewBox="0 0 44 44" fill="none" xmlns="http://www.w3.org/2000/svg">
<path d="M18.2148 3.07945C19.4478 -0.529645 24.5522 -0.529642 25.7852 3.07946L28.1573 10.0227C28.7104 11.6415 30.2317 12.7295 31.9425 12.7295H39.1748C43.0981 12.7295 44.6764 17.79 41.4486 20.0203L35.9486 23.8207C34.4759 24.8384 33.8586 26.7107 34.4373 28.4047L36.6186 34.7895C37.8657 38.4397 33.733 41.5663 30.5595 39.3735L24.2739 35.0302C22.9054 34.0846 21.0946 34.0846 19.7261 35.0302L13.4404 39.3735C10.267 41.5663 6.1343 38.4397 7.38136 34.7895L9.56267 28.4047C10.1414 26.7107 9.52414 24.8384 8.05137 23.8207L2.55135 20.0203C-0.67637 17.79 0.901925 12.7295 4.82525 12.7295H12.0575C13.7683 12.7295 15.2896 11.6415 15.8427 10.0227L18.2148 3.07945Z" fill="#99CFFF"/>
<path d="M25.7852 40.9205C24.5522 44.5296 19.4478 44.5296 18.2148 40.9205L15.8427 33.9773C15.2896 32.3584 13.7683 31.2705 12.0575 31.2705H4.82524C0.901923 31.2705 -0.676367 26.21 2.55136 23.9797L8.05137 20.1793C9.52414 19.1616 10.1414 17.2893 9.56267 15.5953L7.38136 9.21049C6.1343 5.56028 10.267 2.43371 13.4404 4.62651L19.7261 8.9698C21.0946 9.91539 22.9054 9.91539 24.2739 8.9698L30.5596 4.62652C33.733 2.43371 37.8657 5.56029 36.6186 9.2105L34.4373 15.5953C33.8586 17.2893 34.4759 19.1616 35.9486 20.1793L41.4486 23.9797C44.6764 26.21 43.0981 31.2705 39.1748 31.2705H31.9425C30.2317 31.2705 28.7104 32.3584 28.1573 33.9773L25.7852 40.9205Z" fill="#99CFFF"/>
</svg>
